<?xml version="1.0" encoding="UTF-8"?>
<svg version="1.1" viewBox="0 0 2048 2048" width="512" height="512" xmlns="http://www.w3.org/2000/svg">
<path transform="translate(1266)" d="m0 0h578l4 2 30 7 22 8 15 7 17 9 15 10 13 10 10 9 8 7 14 15 13 17 10 15 13 25 9 24 7 26 3 11h1v277l-2 1-5 23-6 21-9 21-8 16-12 19-12 16-13 14-14 14-14 11-16 11-21 12-23 10-22 7-24 5-15 2-13 1-270 1-11 9-14 13-8 7-10 9-8 7-20 18-9 7 18 7 16 8 11 7 11 9 3 2v2l4 2 7 8 9 12 8 13 8 19 5 21 1 7 1 18v199l-1 19-3 18-7 21-10 19-10 14-12 13-13 11-15 9-14 7-15 5-12 3-17 2h-78l-1 9-5 26-7 25-8 22-11 24-10 18-14 21-10 13-11 13-15 16-8 7-10 9-16 12-18 12-23 13-19 9-28 10-26 7-22 4 4 4 16 12 13 11 12 11 21 21 9 11 12 15 14 20 13 22 12 23 11 26 10 30 6 24 5 28 3 30v170l-3 16-6 16-9 16-12 14-12 10-13 8-14 6-16 5h-785l-22-7-16-8-11-8-10-9-10-13-8-14-5-12-4-18-1-14v-138l2-36 5-33 7-30 12-36 11-25 14-27 14-22 14-19 8-10 10-11 7-8 6-7h2v-2h2v-2l8-7 11-10 11-9 15-11h2l-1-3-29-6-29-9-20-8-21-10-17-10-15-10-16-12-10-9-8-7-7-6-7-8-11-12-13-17-10-14-11-19-10-19-10-25-7-22-6-26-3-20-79-1-21-3-20-6-16-8-13-8-10-8-10-9-9-11-9-13-9-17-7-21-3-11v-250l10-30 8-16 8-12 11-13 10-10 17-12 9-5 3-17 8-42 10-38 8-25 8-23 12-29 14-30 13-25 13-22 10-16 13-19 10-14 10-13 11-14 13-15 12-13 11-12 22-22 11-9 8-8 11-9 15-12 16-12 20-14 14-9 18-11 21-12 27-14 29-13 34-13 30-10 37-10 40-8 35-5 35-3 28-1h160l28 1 44 4 38 6 36 8 36 10 12 4v-9l3-27 5-23 6-19 8-20 11-21 11-17 10-13 7-9h2l2-4 13-13 8-7 17-13 19-12 16-8 15-7 22-7 25-6zm15 69-20 3-24 7-18 8-15 9-14 10-16 15-9 10-11 15-9 16-8 18-5 16-4 20-1 11v229l2 17 5 21 8 20 8 16 8 12 8 10 9 10 11 11 13 10 18 11 17 8 18 6 31 7 14 6 11 8 8 8 8 13 5 14 2 15 1 104 6-4 17-16 10-9 8-7 14-12 15-14 11-9 15-14 10-8v-2l4-2 12-11 8-7 12-11 8-7 10-9 8-7 12-9 14-7 14-3 272-1 23-2 22-5 22-8 17-9 12-8 14-11 13-13 8-9 11-16 8-14 7-17 6-20 3-18 1-12v-222l-2-19-6-25-8-20-9-17-12-17-12-13-9-9-13-10-16-10-16-8-19-7-17-4-18-2zm-572 204-29 1-34 3-28 4-35 7-30 8-36 12-28 11-26 12-22 11-23 13-23 15-12 8-19 14-16 13-14 12-12 11-3 2v2l-4 2-20 20v2h-2l-7 8-9 10-9 11-12 15-14 19-8 12-11 17-15 26-15 29-13 30-9 24-10 30-9 34-6 29h69l7-29 8-27 10-28 13-30 14-28 16-27 12-18 10-14 10-13 13-16 10-11v-2h2l7-8 23-23 8-7 14-12 14-11 18-13 15-10 18-11 21-12 26-13 29-12 29-10 28-8 31-7 33-5 35-3h189l35 3 28 4 30 6 20 5 31 10 24 9 9 4h2v-72l-27-10-35-10-26-6-33-6-36-4-16-1-33-1zm-14 137-26 2-35 5-30 7-24 7-20 7-26 11-23 11-24 14-16 10-17 12-9 7-16 13-12 11-8 7-16 16-7 8-9 10-13 17-12 16-13 20-12 21-11 21-12 28-9 25-7 23-8 36-4 27-2 27-1 364 1 22 3 23 7 28 9 24 12 24 14 21 11 14 15 16 14 13 16 12 19 12 17 9 20 8 19 6 23 5 16 2 13 1h560l19-1 26-4 23-6 21-8 23-11 16-10 17-12 11-10 8-7 7-7 9-11 10-12 12-19 12-23 9-24 2-8-16 8-24 14-25 14-24 14-25 14-24 14-41 23-9 3-5 1h-106l-10-2-9-5-7-7-5-11-1-4v-8l3-12 7-10 12-7 10-2 96-1 25-14 26-15 84-48 23-13 24-14 24-13 6-4v-332l-10-8-5-5-6-7-6-10-5-16-1-9-1-108-26-6-20-6-21-9-21-11-15-10-13-10-12-11-8-7-1-2h-2l-2-4-11-12-12-17-9-15-9-17-9-23-6-20-4-22-2-16-8-5-21-10-25-10-30-10-32-8-21-4-34-4-19-1zm-552 409-18 1-12 3-14 7-12 11-7 8-8 16-3 14v222l4 17 6 11 8 10 9 8 14 8 14 4 7 1h73l1-323 1-17-14-1zm1268 0-16 1-8 7-14 12-8 6 1 315h70l14-2 14-5 11-7 10-9 7-10 5-10 4-16v-223l-3-13-8-16-9-11-12-9-11-5-14-4-11-1zm-694 683v71l2 14 4 11 6 11 9 10 8 7 16 8 11 3 16 1 12-2 12-4 12-7 10-9 8-10 6-13 3-11 1-17v-61l-1-2zm-72 2-24 4-24 6-27 9-20 9-23 12-20 13-17 13-10 9-8 7-19 19-11 14-10 13-10 15-11 19-11 23-9 24-7 24-5 26-3 27v161l4 11 6 8 9 6 10 3h760l10-3 9-6 6-8 3-7 1-6v-151l-2-26-5-30-6-22-7-21-10-23-12-23-13-20-9-12-9-11-10-11-7-8-13-12-11-9-14-11-20-13-22-12-24-11-27-9-25-6-26-4-1 76-3 21-5 16-5 12-7 13-7 10-9 11-11 11-14 10-16 9-15 6-20 5-13 2h-23l-18-3-20-6-17-8-11-7-14-11-11-11-11-15-8-14-7-16-5-19-2-14-1-78z"/>
<path transform="translate(505,716)" d="m0 0h555l20 1 24 4 21 6 20 8 19 10 17 12 10 8 12 11 9 9 11 14 9 13 8 14 9 19 7 21 4 16 3 21 1 28v46l-1 31-4 26-6 21-7 18-8 16-7 12-10 14-11 13-3 4h-2v2h-2v2l-8 7-12 10-13 9-17 10-17 8-24 8-25 5-19 2h-565l-21-2-20-4-14-4-21-8-21-11-12-8-14-11-15-14-13-14-13-18-13-23-8-20-6-20-4-22-2-25v-71l2-26 5-25 8-24 12-25 11-17 10-13 2-3h2l2-4 16-16 14-11 13-9 16-9 15-7 16-6 20-5 19-3zm18 69-27 1-17 3-16 5-21 10-15 11-10 9-9 9-11 15-8 14-8 21-4 20-1 7v92l3 18 5 17 8 18 9 14 8 10 8 9 8 7 14 10 10 6 19 8 21 5 20 2h551l21-2 17-4 16-6 15-8 14-10 11-9 7-8 5-6v-2h2l8-12 8-17 6-18 3-15 1-11v-83l-2-18-4-16-5-14-8-16-12-17-11-12-11-9-15-10-19-9-20-6-13-2-54-1z"/>
<path transform="translate(1275,306)" d="m0 0h554l22 1 10 4 10 9 6 12 1 5v8l-2 9-6 9-4 5-12 6-3 1-11 1h-578l-11-2-8-4-5-4-6-9-4-11v-9l3-10 5-8 9-8 10-4z"/>
<path transform="translate(1428,170)" d="m0 0h419l9 2 8 5 5 4 6 9 3 10v9l-3 10-7 10-8 6-7 3-5 1h-421l-11-4-10-9-5-9-2-6v-12l4-11 4-6 8-7 8-4z"/>
<path transform="translate(1011,853)" d="m0 0h26l18 4 17 7 14 9 12 11 9 10 8 13 7 16 4 16 1 7v20l-4 19-5 13-8 15-8 10-2 3h-2v2h-2v2l-14 11-12 7-15 6-18 4-17 1-21-3-19-7-11-6-12-9-13-13-9-13-8-16-5-19-1-6v-23l4-18 5-14 11-18 9-11h2v-2l14-11 10-6 16-7 13-3zm8 69-10 3-8 6-6 7-4 10-1 8 2 11 5 9 7 7 10 5 4 1h12l12-5 8-7 5-8 2-6v-15l-4-10-9-10-10-5-4-1z"/>
<path transform="translate(533,853)" d="m0 0h26l15 3 16 6 14 8 11 9 11 11 7 10 9 17 4 12 3 18v16l-2 15-5 16-7 14-9 13-8 9h-2v2l-12 9-14 8-14 5-17 4-15 1-18-2-20-6-15-8-12-9-12-12-10-14-8-17-4-13-2-14v-17l3-18 5-14 8-15 10-13 11-11 11-8 15-8 15-5zm7 69-9 3-8 6-6 7-4 11v14l5 12 8 8 10 5 5 1h11l11-4 8-6 5-7 3-8v-17l-6-12-7-7-10-5-4-1z"/>
<path transform="translate(1258,443)" d="m0 0h247l9 2 10 6 8 9 4 10v16l-6 12-5 6-10 6-9 2h-249l-10-3-8-6-7-9-4-11v-10l3-10 6-9 9-7 8-3z"/>
<path transform="translate(1258,170)" d="m0 0h43l8 2 9 5 8 8 5 11 1 12-4 13-7 9-9 6-10 3-32 1-14-1-11-4-10-9-6-12-1-4v-10l3-10 6-9 7-6 9-4z"/>
<path transform="translate(386,2047)" d="m0 0 3 1z"/>
<path transform="translate(2047,200)" d="m0 0"/>
</svg>
